
<svg width="100px" height="50px" viewBox="0 0 182 84" version="1.1" xmlns="http://www.w3.org/2000/svg" xmlns:xlink="http://www.w3.org/1999/xlink">
    <!-- Generator: Sketch 50.2 (55047) - http://www.bohemiancoding.com/sketch -->
    <desc>Created with Sketch.</desc>
    <defs></defs>
    <g id="Symbols" stroke="none" stroke-width="1" fill="none" fill-rule="evenodd">
        <g id="Project/.footer-a" transform="translate(-667.000000, -160.000000)" fill="#ffffff" fill-rule="nonzero">
            <g id="logo-hki" transform="translate(667.000000, 160.000000)">
                <path d="M176.757809,5.25229558 L176.757809,53.5513774 C176.757809,62.7704416 169.116024,70.2999563 159.702231,70.2999563 L107.760243,70.2999563 C101.521298,70.2999563 95.6146045,72.540446 91,76.6908614 C86.3853955,72.5771753 80.4787018,70.2999563 74.2397566,70.2999563 L22.1870183,70.2999563 C12.8470588,70.2999563 5.27910751,62.807171 5.27910751,53.5513774 L5.27910751,5.25229558 L176.757809,5.25229558 Z M93.7687627,81.2820289 C97.4973631,77.5723655 102.481136,75.5155225 107.79716,75.5155225 L159.702231,75.5155225 C171.995538,75.5155225 182,65.6720595 182,53.5513774 L182,0 L0,0 L0,53.514648 C0,65.6353301 9.9306288,75.4787932 22.1870183,75.4787932 L74.2397566,75.4787932 C79.5188641,75.4787932 84.5026369,77.5356362 88.2681542,81.2452995 L91.0369168,84 L93.7687627,81.2820289 Z" id="Shape"></path>
                <path d="M158,26.8848315 C158,28.491573 156.69969,29.6601124 155.065015,29.6601124 C153.430341,29.6601124 152.130031,28.491573 152.130031,26.8848315 C152.130031,25.2780899 153.430341,24.1095506 155.065015,24.1095506 C156.69969,24.0365169 158,25.2050562 158,26.8848315 Z M152.501548,49.5617978 L157.591331,49.5617978 L157.591331,31.7780899 L152.501548,31.7780899 L152.501548,49.5617978 Z M143.362229,38.8258427 L150.012384,49.5617978 L144.47678,49.5617978 L140.018576,42.4410112 L137.603715,45.4353933 L137.603715,49.5617978 L132.551084,49.5617978 L132.551084,24 L137.603715,24 L137.603715,35.7949438 C137.603715,37.9859551 137.343653,40.1769663 137.343653,40.1769663 L137.455108,40.1769663 C137.455108,40.1769663 138.643963,38.241573 139.647059,36.8539326 L143.510836,31.7780899 L149.455108,31.7780899 L143.362229,38.8258427 Z M127.424149,38.1685393 C127.424149,33.75 125.232198,31.3398876 121.739938,31.3398876 C118.767802,31.3398876 117.20743,33.0561798 116.315789,34.6994382 L116.204334,34.6994382 L116.464396,31.7780899 L111.411765,31.7780899 L111.411765,49.5617978 L116.464396,49.5617978 L116.464396,39.008427 C116.464396,36.9634831 117.690402,35.5393258 119.585139,35.5393258 C121.479876,35.5393258 122.297214,36.7808989 122.297214,39.1544944 L122.297214,49.5617978 L127.386997,49.5617978 L127.424149,38.1685393 Z M106.544892,26.8848315 C106.544892,28.491573 105.244582,29.6601124 103.609907,29.6601124 C101.975232,29.6601124 100.674923,28.491573 100.674923,26.8848315 C100.674923,25.2780899 101.975232,24.1095506 103.609907,24.1095506 C105.281734,24.0365169 106.544892,25.2050562 106.544892,26.8848315 Z M101.04644,49.5617978 L106.136223,49.5617978 L106.136223,31.7780899 L101.04644,31.7780899 L101.04644,49.5617978 Z M92.2786378,44.5955056 C92.2786378,43.1713483 90.2724458,42.8792135 87.9318885,42.2219101 C85.2198142,41.5280899 81.8018576,40.1769663 81.8018576,36.7808989 C81.8018576,33.4213483 85.0712074,31.3033708 88.9349845,31.3033708 C92.5386997,31.3033708 95.8452012,32.9831461 97.2198142,35.3567416 L92.873065,37.7668539 C92.4272446,36.1966292 91.0897833,34.9550562 89.0835913,34.9550562 C87.7832817,34.9550562 86.7058824,35.502809 86.7058824,36.5617978 C86.7058824,37.9129213 89.0835913,38.0589888 91.7585139,38.8988764 C94.5820433,39.7752809 97.1826625,41.0533708 97.1826625,44.3033708 C97.1826625,47.8820225 93.8018576,50 89.9009288,50 C85.6656347,50 82.3219814,48.247191 80.8359133,45.3988764 L85.2569659,42.9522472 C85.8142415,44.8876404 87.4117647,46.3483146 89.8266254,46.3483146 C91.2755418,46.3483146 92.2786378,45.7640449 92.2786378,44.5955056 Z M76.1919505,24.1460674 L71.1021672,24.1460674 L71.1021672,44.6320225 C71.1021672,46.4578652 71.5108359,47.8089888 72.2910217,48.6488764 C73.1083591,49.488764 74.371517,49.8904494 76.1176471,49.8904494 C76.7120743,49.8904494 77.3436533,49.8174157 77.9380805,49.7078652 C78.5696594,49.5617978 79.0526316,49.3792135 79.4613003,49.1601124 L79.9071207,45.8005618 C79.498452,45.9466292 79.1640867,46.0561798 78.8297214,46.0926966 C78.5325077,46.1657303 78.1609907,46.1657303 77.752322,46.1657303 C77.0835913,46.1657303 76.7863777,45.9831461 76.5634675,45.6544944 C76.3034056,45.3258427 76.1919505,44.741573 76.1919505,43.9016854 L76.1919505,24.1460674 Z M59.250774,34.9185393 C57.3931889,34.9185393 55.869969,36.2331461 55.4613003,38.6432584 L62.5944272,38.6432584 C62.6315789,36.5252809 61.2198142,34.9185393 59.250774,34.9185393 Z M67.0897833,42.002809 L55.3869969,42.002809 C55.6099071,44.8876404 57.244582,46.3117978 59.3622291,46.3117978 C61.2569659,46.3117978 62.5572755,45.0702247 62.8544892,43.3904494 L67.126935,45.7640449 C65.8637771,48.0280899 63.1517028,50 59.3622291,50 C54.3095975,50 50.5944272,46.5308989 50.5944272,40.6882022 C50.5944272,34.8820225 54.3839009,31.3764045 59.250774,31.3764045 C64.1176471,31.3764045 67.3498452,34.7724719 67.3498452,39.5926966 C67.3126935,41.0168539 67.0897833,42.002809 67.0897833,42.002809 Z M41.1950464,49.5617978 L46.4705882,49.5617978 L46.4705882,25.0955056 L41.1950464,25.0955056 L41.1950464,34.7724719 L31.2755418,34.7724719 L31.2755418,25.1320225 L26,25.1320225 L26,49.5617978 L31.2755418,49.5617978 L31.2755418,39.4466292 L41.1950464,39.4466292 L41.1950464,49.5617978 Z" id="Shape"></path>
            </g>
        </g>
    </g>
</svg>